<svg xmlns="http://www.w3.org/2000/svg" width="1920" height="1080" viewBox="0 0 1920 1080">
  <defs>
    <style>
      .cls-1 {
        fill-rule: evenodd;
      }
    </style>
  </defs>
  <path id="Color_Fill_1" data-name="Color Fill 1" class="cls-1" d="M0,0H1920V1080H0V0ZM1176,360l-48,6c-28.99,6.177-54.93,16.6-80,27-31.6,13.115-63.183,40.665-79,70l-12,35-38,23c-20,11.692-40.968,32.8-56,50-58.768,67.23-55.4,170.483,2,236,94.826,108.226,333.85,178.41,519,106,26.49-10.36,84.25-30.7,101-48,6.01-6.209,7.93-15.915,14-22,23.46-23.5,56.63-48.52,64-87,13.7-6.017,40.98-24.591,30-50-7.61-16.754-46.16-30.945-65-37-10.2-3.278-22.16-2.215-30-7-11.9-30.888-.55-31.811,12-53v-1l-38,1c-0.33-1-.67-2-1-3-6.48-22.788,19.03-68.594,6-106C1442.78,401.775,1312.19,359.732,1176,360Z"/>
</svg>
